<?xml version="1.0" encoding="utf-8"?>
<!-- Generator: Adobe Illustrator 21.0.0, SVG Export Plug-In . SVG Version: 6.00 Build 0)  -->
<svg version="1.1" id="Layer_1" xmlns="http://www.w3.org/2000/svg" xmlns:xlink="http://www.w3.org/1999/xlink" x="0px" y="0px"
	 viewBox="0 0 100 100" style="enable-background:new 0 0 100 100;" xml:space="preserve">
<style type="text/css">
	.st0{fill:#CE0514;}
</style>
<circle cx="48.3" cy="41.4" r="37.1"/>
<path class="st0" d="M59,56c-3.3,0-5.2-6.1-7.4-13.1c-1.9-6.1-4-13-6.7-13c-2.7,0-4.8,6.9-6.6,13C36.1,49.9,34.3,56,31,56
	c-3.2,0-5.4-5.9-7.4-12.7c-1.9-6.2-5.1-13.3-7.4-13.3v-1.3c3.1,0,6.4,6.9,8.6,14.2c1.7,5.5,3.7,11.8,6,11.8c2.4,0,4.4-6.5,6.2-12.3
	c2.2-7.1,4.3-13.9,7.9-13.9c3.6,0,5.7,6.7,8,13.9c1.8,5.7,3.8,12.3,6.2,12.3c2.3,0,4.4-6.3,6-11.8c2.2-7.3,4.7-14.2,8.5-14.2V30
	c-3.1,0-5.4,7.1-7.3,13.3C64.2,50.2,62.3,56,59,56z"/>
<path class="st0" d="M62.9,56c-3.3,0-5.2-6.1-7.4-13.1c-1.9-6.1-4-13-6.7-13c-2.7,0-4.8,6.9-6.6,13c-2.2,7.1-4,13.2-7.3,13.2
	c-3.2,0-5.4-5.9-7.4-12.7c-1.9-6.2-5.1-13.3-7.4-13.3v-1.3c3.1,0,6.4,6.9,8.6,14.2c1.7,5.5,3.7,11.8,6,11.8c2.4,0,4.4-6.5,6.2-12.3
	c2.2-7.1,4.3-13.9,7.9-13.9c3.6,0,5.7,6.7,8,13.9c1.8,5.7,3.8,12.3,6.2,12.3c2.3,0,4.4-6.3,6-11.8c2.2-7.3,4.7-14.2,8.5-14.2V30
	c-3.1,0-5.4,7.1-7.3,13.3C68.1,50.2,66.1,56,62.9,56z"/>
<path class="st0" d="M66.7,56c-3.3,0-5.2-6.1-7.4-13.1c-1.9-6.1-4-13-6.7-13c-2.7,0-4.8,6.9-6.6,13c-2.2,7.1-4,13.2-7.3,13.2
	c-3.2,0-5.7-5.9-7.8-12.7c-1.9-6.2-4.7-13.3-7-13.3v-1.3c3.1,0,6.1,6.9,8.3,14.2c1.7,5.5,3.9,11.8,6.2,11.8c2.4,0,4.5-6.5,6.3-12.3
	c2.2-7.1,4.3-13.9,8-13.9c3.6,0,5.8,6.7,8,13.9c1.8,5.7,3.8,12.3,6.2,12.3c2.3,0,4-6.3,5.7-11.8c2.2-7.3,4.3-14.2,8.1-14.2V30
	c-3.1,0-5,7.1-6.9,13.3C71.5,50.2,69.9,56,66.7,56z"/>
<g>
	<path d="M66,85.7c2.8,0,5.1,2.2,5.1,4.9c0,2.7-2.3,4.9-5.1,4.9h-3.9v-9.9H66z M62.7,95H66c2.5,0,4.5-1.9,4.5-4.3
		c0-2.4-2-4.4-4.5-4.4h-3.3V95z"/>
	<path d="M74,86.3v3.9h5.1v0.6H74V95h6v0.6h-6.5v-9.9h6.4v0.6H74z"/>
	<path d="M85,95.6l-4.1-9.9h0.7l3.7,9.2l3.7-9.2h0.6l-4.1,9.9H85z"/>
</g>
<g>
	<path d="M21.1,95.3L18.4,88l-2.6,7.3h-1.4L11,85.9h1.4l2.7,7.4l2.7-7.4H19l2.7,7.5l2.8-7.5h1.4l-3.4,9.4H21.1z"/>
	<path d="M36.8,86.1v9.2h-1.4v-0.8c-1.2,0.8-2.2,1.1-3.5,1.1c-2.8,0-4.7-2-4.7-5c0-3,1.8-4.9,4.7-4.9C33.7,85.6,34.9,85.8,36.8,86.1
		z M28.6,90.6c0,2.2,1.3,3.8,3.4,3.8c1.1,0,2.1-0.3,3.3-1.1v-6.2c-1.2-0.2-2.1-0.3-3.2-0.3C29.8,86.8,28.6,88.4,28.6,90.6z"/>
	<path d="M43.3,95.3l-4.4-9.4h1.5l3.6,7.7l3.6-7.7h1.5l-4.4,9.4H43.3z"/>
	<path d="M59.5,90.1c0,0.5,0,0.6-0.1,1.1h-7.8c0.2,1.9,1.6,3.2,3.6,3.2c1.2,0,2.2-0.2,3.4-0.5l0.2,1.1c-1.2,0.4-2.3,0.6-3.7,0.6
		c-3.2,0-5.1-2.1-5.1-5c0-3,2-5,4.9-5C57.7,85.6,59.5,87.3,59.5,90.1z M51.6,90.1h6.6c0-2-1.3-3.3-3.2-3.3
		C53.1,86.8,51.8,88.1,51.6,90.1z"/>
</g>
</svg>
